<?xml version="1.0" encoding="utf-8"?>
<!-- Generator: Adobe Illustrator 19.1.0, SVG Export Plug-In . SVG Version: 6.00 Build 0)  -->
<svg version="1.1" id="Layer_1" xmlns="http://www.w3.org/2000/svg" xmlns:xlink="http://www.w3.org/1999/xlink" x="0px" y="0px"
	 viewBox="-164 42.3 512 512" style="enable-background:new -164 42.3 512 512;" xml:space="preserve">
<style type="text/css">
	.st0{fill:#2990D8;}
</style>
<g>
	<g>
		<path class="st0" d="M92,138.3c-114.9,0-208,93.1-208,208s93.1,208,208,208s208-93.1,208-208S206.9,138.3,92,138.3z M92,522.3
			c-97.1,0-176-79-176-176c0-97.1,78.9-176,176-176c97,0,176,78.9,176,176C268,443.3,189,522.3,92,522.3z M-63.7,140.6
			c-4.4-7.7-1.8-17.4,5.8-21.9l27.8-16c7.6-4.4,17.4-1.8,21.8,5.9l17.2,29.8c-20.1,8.1-38.6,18.9-55.4,32.1L-63.7,140.6z
			 M230.4,170.5c-16.7-13.2-35.3-24.1-55.4-32.1l17.2-29.8c4.4-7.7,14.2-10.3,21.9-5.9l27.7,16c7.7,4.4,10.3,14.2,5.9,21.9
			L230.4,170.5z M44,90.3v-32c0-8.8,7.2-16,16-16h64c8.8,0,16,7.2,16,16v32c0,8.8-7.2,16-16,16v18.6c-10.5-1.5-21.1-2.6-32-2.6
			s-21.5,1.1-32,2.6v-18.6C51.2,106.3,44,99.1,44,90.3z"/>
	</g>
	<g>
		<path class="st0" d="M92,387.7c-11,0-20-9-20-20V228.9c0-11,9-20,20-20s20,9,20,20v138.8C112,378.7,103,387.7,92,387.7z"/>
	</g>
	<g>
		<circle class="st0" cx="92" cy="359.6" r="32"/>
	</g>
</g>
</svg>
